<svg xmlns="http://www.w3.org/2000/svg" viewBox="0 0 100 100">
  <defs>
    <linearGradient id="shieldGrad" x1="0%" y1="0%" x2="100%" y2="100%">
      <stop offset="0%" style="stop-color:#3b82f6;stop-opacity:1" />
      <stop offset="100%" style="stop-color:#60a5fa;stop-opacity:1" />
    </linearGradient>
    <linearGradient id="checkGrad" x1="0%" y1="0%" x2="100%" y2="100%">
      <stop offset="0%" style="stop-color:#10b981;stop-opacity:1" />
      <stop offset="100%" style="stop-color:#34d399;stop-opacity:1" />
    </linearGradient>
    <filter id="shadow" x="-10%" y="-10%" width="130%" height="130%">
      <feDropShadow dx="0" dy="2" stdDeviation="3" flood-color="#3b82f6" flood-opacity="0.3"/>
    </filter>
  </defs>
  
  <!-- Shield background -->
  <path d="M50 8 
           C50 8, 20 18, 14 22 
           C12 23, 10 25, 10 28 
           C10 55, 22 78, 50 92 
           C78 78, 90 55, 90 28 
           C90 25, 88 23, 86 22 
           C80 18, 50 8, 50 8Z" 
        fill="url(#shieldGrad)" 
        filter="url(#shadow)"/>
  
  <!-- Inner shield highlight -->
  <path d="M50 14 
           C50 14, 26 22, 20 26 
           C18 27, 17 28, 17 30 
           C17 52, 27 72, 50 84 
           C73 72, 83 52, 83 30 
           C83 28, 82 27, 80 26 
           C74 22, 50 14, 50 14Z" 
        fill="none" 
        stroke="rgba(255,255,255,0.25)" 
        stroke-width="2"/>
  
  <!-- Checkmark -->
  <path d="M32 48 
           L44 62 
           L68 36" 
        fill="none" 
        stroke="url(#checkGrad)" 
        stroke-width="8" 
        stroke-linecap="round" 
        stroke-linejoin="round"
        filter="url(#shadow)"/>
</svg>
